PathFileType	4	(X/Y/Z)	Apose_0-50.trc
DataRate	CameraRate	NumFrames	NumMarkers	Units	OrigDataRate	OrigDataStartFrame	OrigNumFrames
30	30	6	22	m	30	10	50
Frame#	Time	Hip			RHip			RKnee			RAnkle			RBigToe			RSmallToe			RHeel			LHip			LKnee			LAnkle			LBigToe			LSmallToe			LHeel			Neck			Head			Nose			RShoulder			RElbow			RWrist			LShoulder			LElbow			LWrist		
		X1	Y1	Z1	X2	Y2	Z2	X3	Y3	Z3	X4	Y4	Z4	X5	Y5	Z5	X6	Y6	Z6	X7	Y7	Z7	X8	Y8	Z8	X9	Y9	Z9	X10	Y10	Z10	X11	Y11	Z11	X12	Y12	Z12	X13	Y13	Z13	X14	Y14	Z14	X15	Y15	Z15	X16	Y16	Z16	X17	Y17	Z17	X18	Y18	Z18	X19	Y19	Z19	X20	Y20	Z20	X21	Y21	Z21	X22	Y22	Z22
11	0.3666666666666666	0.03095197808126751	0.9255333086899211	0.35976191866414003	0.019194927208996182	0.8912334230151685	0.46434773875954916	-0.00032049527226253886	0.509407520367969	0.4997035019012108	-0.0050215589271710645	0.11045066046065662	0.5166356130320701	0.19947371756700258	0.036540328049258566	0.5679339553129146	0.14964007915069544	0.025640776748139544	0.6264961563715333	-0.03799317848195989	0.03843910688442604	0.49985091708249185	0.0226599759632422	0.8935129444708532	0.24577864466587823	0.00512598059065381	0.5125683099227952	0.22656612423382205	0.0032878434223484153	0.11939779109726728	0.2083383520965435	0.21626680829392028	0.045596631906682054	0.1911091906476013	0.16508663973607673	0.03412234766472327	0.12672998561528867	-0.043708628782606576	0.059308131488592014	0.19650466473235884	0.059617551952077845	1.5703611713048677	0.3495907967927204	0.277086360788388	1.7629950889587027	0.32904453668622047	0.3204493327145233	1.6141892036700787	0.3377310325330216	0.018223252138457154	1.5000142358625432	0.535407071942994	0.057173467001945436	1.2352877467309684	0.7239263026505304	0.12128212242921628	1.0476008800117407	0.8998465110613648	0.019306679338633347	1.483183466908419	0.1532979981049856	0.015048077694033928	1.2297041307151646	0.006393946300776088	0.05352304304169294	1.0128950142542787	-0.14838319727436547
12	0.4	0.030458609988255662	0.9249269000570846	0.3591800343743546	0.018962277890519706	0.8899213135757522	0.4639285346156738	-0.0006985271488960267	0.5096806850819625	0.4996133220699539	-0.005490732455163956	0.11109080264535134	0.5169583345242643	0.19939399183961942	0.03759602486711858	0.5679313913818891	0.14923824367973565	0.026914230185750787	0.6265112922400834	-0.0377215053859137	0.03916121496585504	0.49993157728461873	0.022271507278011013	0.8912542012812161	0.24585976027949202	0.004891498054926703	0.5117818315119345	0.2261916692938662	0.0023863983150215974	0.12060480123350785	0.20809743125754726	0.21621623956249472	0.045570583134653085	0.1911369641092944	0.16516644669398942	0.033906147725820054	0.12683763246677615	-0.04415390235655711	0.058346505773930406	0.1977264300346111	0.05827174898990135	1.5713072309349339	0.3493520806065802	0.27633791204623154	1.7619936596654668	0.3279795389548252	0.3199567240654557	1.6133271174184896	0.3376386843961234	0.01874250693188138	1.4998389217167738	0.5354012101392513	0.055514901348034995	1.2364881417885278	0.7222207702849733	0.11994916097673766	1.048025557488185	0.8983056254378207	0.018169701889240403	1.4824263822627206	0.15225825834793127	0.016202975233832545	1.2288702724255784	0.006393232409833427	0.05672576584257006	1.0136786391253436	-0.14692038226059587
13	0.4333333333333333	0.030120800101753494	0.9244198227464501	0.3586519611371004	0.019092724536541917	0.8885657269810359	0.46345011213652726	-0.001094170443952876	0.509736020243824	0.49939762354073924	-0.006289008913425598	0.11222125734621204	0.5171483046403578	0.1990467228439676	0.03823944018999424	0.5675631986794581	0.14900204621358643	0.027680299787612044	0.6266100157128583	-0.037772535279684175	0.039954226918646904	0.49999483547574525	0.022241104119683174	0.8892132367352275	0.2458693277923534	0.0047241133129111495	0.5109834555230071	0.22567504244772651	0.0014254758392860326	0.12200913693847619	0.207727613368588	0.21610415633182453	0.04560696391535484	0.19116297768815524	0.16525741300372224	0.03375265843361226	0.12683836599330975	-0.04540042044031795	0.05583897819861754	0.19958866908880513	0.05646297266903379	1.572419000305159	0.34936401214359863	0.27251890471883305	1.760257827349437	0.3294358813091914	0.3192111348317987	1.6126731935932574	0.33734333659322646	0.019340848695798912	1.4996333112954878	0.5353584738097507	0.05412792301111263	1.2376516952358791	0.7204793434359503	0.11887189094491167	1.0485378474085232	0.8967654134612957	0.016976669956188434	1.4817451682942835	0.15140502222896193	0.017278419866361305	1.2280993584884305	0.006278568604093882	0.059993751699231254	1.0146022332889408	-0.1455869721403364
14	0.4666666666666667	0.03007894853672681	0.9240695106982926	0.35826153362358976	0.019431175217372736	0.8876043086754449	0.46298364163718003	-0.0014646542692203113	0.5095000180566878	0.49903894184535924	-0.0072580137870570235	0.11386755509907141	0.5171558778452907	0.19818250462825926	0.038331029761391695	0.5667562946869386	0.14901242621916286	0.02798286183255831	0.6266537698248908	-0.038084156395548754	0.040570773424215806	0.49997687005909563	0.02264725152563799	0.8878688041101668	0.2457084056605609	0.00463256768078874	0.5103981400339058	0.22511315120031994	0.0006759061644587975	0.12322640258638998	0.20721706802497644	0.2159487142728445	0.045791189422330514	0.19110120922705554	0.16531966434705375	0.03372748385681883	0.12675008184239203	-0.047347623007205394	0.052013091784996496	0.20181356518832394	0.05465764319610036	1.5733342671144102	0.3494628117957813	0.2669206514073803	1.758558933414901	0.3326494182740606	0.3185180330321871	1.61264009626103	0.33679671202488026	0.01957162587592457	1.4994862238628108	0.53498526798002	0.053033110759302185	1.2384901103706247	0.7189221007946659	0.11803059343420476	1.0489685865521203	0.8954184083081713	0.016090033247205014	1.4812725802968358	0.1508955136990032	0.018373800147800524	1.227400846533678	0.0061098087571755805	0.06336207463597643	1.015517493182545	-0.144552714239807
15	0.5	0.030404785036475056	0.92388973384611	0.3580414963112827	0.019832049750429903	0.887253217273428	0.4626186239324268	-0.0016961777491397716	0.5090252841705714	0.49861151139097204	-0.008171587502332047	0.11579592153477147	0.5169973924349617	0.19672795619309347	0.037857655590363914	0.5654976845503908	0.14929718749810028	0.027857545992051508	0.6265426133638831	-0.03879304054321362	0.04102158236901621	0.5001145774710009	0.023464291664243245	0.8873563112213199	0.2453713232312181	0.004688215390471932	0.510170068717751	0.22462042368252813	0.00023778913174073878	0.1241274568052238	0.20657803586274504	0.21575427039391712	0.04615650054845958	0.19084416909595744	0.16530420988761574	0.033874146910969447	0.12655381736668272	-0.04954033988072566	0.04774884693196889	0.20395398034189124	0.05321844879322819	1.573837847270071	0.3495079399786259	0.26161029130202434	1.757522749424026	0.33599222096332815	0.3178990675672432	1.6132719483416822	0.3360296527616045	0.019234347681559506	1.4994177306299363	0.5341781341499691	0.05227813742135103	1.238911099864231	0.7176118580121057	0.11741830963353492	1.0492231702923938	0.8943579087069753	0.015654205034793523	1.4810410024267475	0.15070848746363963	0.019583747175906743	1.2267809457434216	0.0058844530178740915	0.06659258168260457	1.0161466595922903	-0.14409831428615616
16	0.5333333333333333	0.03102405971480296	0.9238365940104113	0.357935095257289	0.020204211186543464	0.8873837420558841	0.46242160194976584	-0.0016672888830060577	0.5084744313827049	0.4982282737260367	-0.008771807110561572	0.11748232978646199	0.5167362249126551	0.19493930288617237	0.03699686084393919	0.5639139297620719	0.14967193960412944	0.02755765392420513	0.6263217098205769	-0.040038244784443934	0.04148351258115896	0.5007171835667609	0.024510627353319978	0.8874228908375787	0.2449633027523415	0.004960262449391294	0.5102777095243397	0.22428416520817732	8.541037479153227e-05	0.12471513499302937	0.20587811372769277	0.21553448693291158	0.046643021160913435	0.190342798204022	0.16520902547806815	0.03418638631997199	0.1262009582427721	-0.05132642102324157	0.044350689861070644	0.20545584855164745	0.05226323058052282	1.5739777003616	0.3494277933912734	0.25786828374941567	1.7573523393738482	0.3383325121725297	0.3171057515348321	1.6142415869359439	0.3351217115137066	0.018509858280972874	1.4993710654722918	0.5331037356002531	0.05198608164436747	1.2389472041202105	0.7166287591265056	0.11703551572416201	1.0493251512289994	0.8935577024168587	0.01551023659028275	1.4810190382534467	0.1506591643459804	0.020875147548218325	1.2263002070627018	0.005566795809582294	0.06929605616865475	1.016312363618627	-0.14443977909451802
